<svg width="33" height="40" viewBox="0 0 33 40" fill="none" xmlns="http://www.w3.org/2000/svg">
<path d="M16.5 39.6962C19.1017 39.6962 21.2121 37.5086 21.2121 34.8095H11.7879C11.7879 37.5086 13.8983 39.6962 16.5 39.6962ZM32.3657 28.2651C30.9426 26.68 28.2798 24.2955 28.2798 16.4844C28.2798 10.5517 24.2668 5.8024 18.8557 4.63723V3.04601C18.8557 1.69682 17.8008 0.602661 16.5 0.602661C15.1992 0.602661 14.1443 1.69682 14.1443 3.04601V4.63723C8.73324 5.8024 4.72022 10.5517 4.72022 16.4844C4.72022 24.2955 2.05739 26.68 0.634268 28.2651C0.192305 28.7576 -0.0036321 29.3463 5.0928e-05 29.9228C0.00815358 31.175 0.956164 32.3661 2.36455 32.3661H30.6354C32.0438 32.3661 32.9926 31.175 32.9999 29.9228C33.0036 29.3463 32.8077 28.7569 32.3657 28.2651V28.2651Z" fill="white"/>
</svg>
